<svg xmlns="http://www.w3.org/2000/svg" xmlns:xlink="http://www.w3.org/1999/xlink" viewBox="0 0 271.14 161.5"><defs><style>.cls-1{fill:url(#linear-gradient);}.cls-2{fill:url(#linear-gradient-2);}</style><linearGradient id="linear-gradient" y1="80.75" x2="271.14" y2="80.75" gradientUnits="userSpaceOnUse"><stop offset="0" stop-color="#1fc2eb"/><stop offset="1" stop-color="#e91c83"/></linearGradient><linearGradient id="linear-gradient-2" x1="44.21" y1="26.19" x2="107.19" y2="26.19" xlink:href="#linear-gradient"/></defs><title>Asset 1</title><g id="Layer_2" data-name="Layer 2"><g id="Layer_1-2" data-name="Layer 1"><path class="cls-1" d="M263.64,62.64a25.61,25.61,0,0,1,0,36.22l-.16.16L245.21,117.3,197.35,69.44a9.85,9.85,0,0,0-13.92,0L172.11,80.75l54.82,54.82-18.27,18.27-.16.16a25.61,25.61,0,0,1-36.22,0l-36.71-36.71L117.3,135.57,99,153.84l-.16.16a25.61,25.61,0,0,1-36.22,0L7.5,98.86a25.61,25.61,0,0,1,0-36.22l.16-.16L25.93,44.2,73.79,92.06a9.84,9.84,0,0,0,13.92,0L99,80.75,80.75,62.47,99,44.2l18.27-18.27,18.28,18.28,18.27-18.28L172.12,7.66l.16-.16a25.61,25.61,0,0,1,36.22,0Z"/><path class="cls-2" d="M107.19,15.84,88.92,34.1,70.66,52.37,44.21,25.93,62.48,7.66l.16-.16a25.61,25.61,0,0,1,36.22,0Z"/></g></g></svg>